<svg width="651" height="220" viewBox="0 0 651 220" fill="none" xmlns="http://www.w3.org/2000/svg">
<g clip-path="url(#clip0_6_34)">
<path d="M93.2107 118.454L35.3697 179.749L15.4457 159.317L71.7583 100.576" fill="white"/>
<path d="M144.16 115.9L86.3191 177.195L66.3952 156.763L122.708 98.0218" fill="white"/>
<path d="M75.5929 11.1609L122.708 54.5786L163.762 11.1354C134.399 11.0843 104.983 11.0077 75.5661 11.1609H75.5929Z" fill="white"/>
<path d="M67.146 11.2375L23.1686 12.3868L47.6243 34.1723L69.0499 11.212C68.4063 11.212 67.7896 11.212 67.146 11.212V11.2375Z" fill="white"/>
<path d="M71.7583 11.1864L50.9495 36.4453L86.5336 69.2895L138.797 120.982L162.931 97.9963L71.7851 11.1864C71.7851 11.1864 71.7851 11.1864 71.7583 11.1864Z" fill="#FF2237"/>
<path d="M20.8088 13.7404L0 38.9993L35.5842 71.8435L87.8476 123.536L111.982 100.55" fill="#FF2237"/>
<path d="M189.398 159.649C188.728 147.748 187.843 138.043 186.77 130.534C203.101 137.506 217.93 140.98 231.284 140.98C236.62 140.98 241.608 140.214 246.22 138.681C250.832 137.149 254.265 135.003 256.463 132.22C258.662 129.436 259.789 126.345 259.789 122.898C259.789 120.241 259.252 117.841 258.206 115.746C256.624 112.86 253.97 109.847 250.242 106.705C245.469 102.415 236.969 95.3146 224.741 85.4562C218.922 80.6803 214.873 77.2835 212.674 75.2403C207.686 70.7708 203.851 66.7611 201.17 63.2111C198.488 59.661 196.584 56.111 195.405 52.5865C194.225 49.062 193.662 45.3076 193.662 41.3234C193.662 33.968 195.86 27.0722 200.231 20.6106C204.602 14.1491 211.145 9.11772 219.86 5.46552C228.575 1.81333 239.543 0 252.817 0C264.723 0 278.157 1.37915 293.067 4.11191C293.496 12.2591 294.327 21.5556 295.56 32.0525C282.582 27.3531 270.595 25.0035 259.628 25.0035C251.476 25.0035 244.799 26.7402 239.597 30.2391C234.394 33.7126 231.793 37.7734 231.793 42.3961C231.793 43.6476 231.981 44.9501 232.33 46.3292C232.705 47.7084 233.241 49.0365 233.965 50.3134C234.689 51.616 235.976 53.2761 237.827 55.3703C239.677 57.4391 242.412 59.8653 245.979 62.6492C249.545 65.433 252.629 67.6805 255.15 69.3917L270.568 82.5447C274.483 85.6095 277.97 88.5721 281.053 91.4581C284.137 94.3441 286.765 97.1279 288.991 99.7841C291.19 102.44 292.933 104.994 294.166 107.42C295.426 109.847 296.338 112.324 296.982 114.878C297.598 117.432 297.92 120.088 297.92 122.923C297.92 129.487 296.284 135.693 293.04 141.542C289.795 147.39 285.129 152.166 279.042 155.921C272.955 159.675 266.278 162.28 259.038 163.736C251.798 165.192 244.128 165.907 236.03 165.907C230.694 165.907 224.473 165.472 217.393 164.604C210.314 163.736 200.982 162.101 189.398 159.675V159.649Z" fill="#FF2237"/>
<path d="M350.64 146.547L329.482 91.739L310.47 41.1191C319.212 41.2723 325.513 41.349 329.348 41.349C333.773 41.349 339.565 41.2723 346.724 41.1191C348.467 47.6062 350.103 53.2505 351.605 58.0265L369.384 113.346" fill="white"/>
<path d="M348.199 184.806C345.947 187.922 344.177 190.093 342.89 191.242C341.603 192.417 340.316 193.311 339.082 193.949C337.151 194.894 335.087 195.609 332.834 196.12C330.582 196.631 328.383 196.886 326.211 196.886C324.199 196.886 322.161 196.733 320.097 196.452C320.687 204.063 321.116 211.674 321.357 219.285C326.371 219.77 330.287 220.026 333.075 220.026C337.902 220.026 342.702 219.566 347.449 218.621C351.605 217.676 355.493 216.424 359.086 214.867C361.929 213.615 364.584 212.057 367.077 210.167C369.652 208.201 372.038 205.851 374.21 203.118C376.865 199.926 379.681 195.405 382.577 189.633L403.466 144.938L451.6 43.6986C443.18 43.8519 437.173 43.9285 433.58 43.9285C429.665 43.9285 423.953 43.8519 416.445 43.6986C414.192 49.4962 411.993 54.8851 409.821 59.8909L397.701 87.9591C391.882 101.572 387.323 112.452 384.078 120.599" fill="#FF2237"/>
<path d="M544.355 27.4808L542.88 48.9343L539.287 131.428L539.045 145.245C538.965 150.94 538.911 156.891 538.911 163.046L519.872 162.816C517.781 162.816 510.996 162.893 499.466 163.046L502.201 128.772L504.936 77.6921L506.679 27.4553H497.937" fill="#FF2237"/>
<path d="M453.262 28.528C453.933 17.2649 454.308 8.68354 454.389 2.80938C478.389 2.96262 503.515 3.03924 529.74 3.03924L574.603 2.91154L598.602 2.78384C597.342 23.9308 597.342 22.5006 597.342 28.5024" fill="#FF2237"/>
<path d="M650.973 3.52451H613.431V29.0643H650.973V3.52451Z" fill="#FF2237"/>
<path d="M613.431 34.1723H650.973V161.871H613.431" fill="#FF2237"/>
</g>
<defs>
<clipPath id="clip0_6_34">
<rect width="651" height="220" fill="white"/>
</clipPath>
</defs>
</svg>
